<?xml version="1.0" encoding="UTF-8" standalone="no"?>
<!DOCTYPE svg PUBLIC "-//W3C//DTD SVG 1.1//EN"
 "http://www.w3.org/Graphics/SVG/1.1/DTD/svg11.dtd">
<!-- Generated by graphviz version 2.43.0 (0)
 -->
<!-- Title: ManagementAppDataFlow Pages: 1 -->
<svg width="5228pt" height="2392pt"
 viewBox="0.00 0.00 1882.00 861.00" xmlns="http://www.w3.org/2000/svg" xmlns:xlink="http://www.w3.org/1999/xlink">
<g id="graph0" class="graph" transform="scale(2.78 2.78) rotate(0) translate(36 825)">
<title>ManagementAppDataFlow</title>
<polygon fill="#0d1117" stroke="transparent" points="-36,36 -36,-825 1846,-825 1846,36 -36,36"/>
<text text-anchor="start" x="41.5" y="-32.6" font-family="Helvetica,Arial,sans-serif" font-weight="bold" font-size="18.00" fill="#58a6ff">Management App &#160;⇄ &#160;Fractal Memory Plugin</text>
<text text-anchor="start" x="12.5" y="-11.2" font-family="Helvetica,Arial,sans-serif" font-size="11.00" fill="#8b949e">Data Flow — HTTP :8787 · ~30 API Routes · SSE Live Feed · SQLite via MemoryStore Port</text>
<g id="clust1" class="cluster">
<title>cluster_frontend</title>
<path fill="#0d1117" stroke="#30363d" stroke-dasharray="5,2" d="M12,-340C12,-340 156,-340 156,-340 162,-340 168,-346 168,-352 168,-352 168,-468 168,-468 168,-474 162,-480 156,-480 156,-480 12,-480 12,-480 6,-480 0,-474 0,-468 0,-468 0,-352 0,-352 0,-346 6,-340 12,-340"/>
<text text-anchor="start" x="12" y="-462.6" font-family="Helvetica,sans-Serif" font-weight="bold" font-size="13.00" fill="#58a6ff">Frontend (Browser)</text>
</g>
<g id="clust2" class="cluster">
<title>cluster_server</title>
<path fill="#0d1117" stroke="#30363d" stroke-dasharray="5,2" d="M380,-236C380,-236 600,-236 600,-236 606,-236 612,-242 612,-248 612,-248 612,-572 612,-572 612,-578 606,-584 600,-584 600,-584 380,-584 380,-584 374,-584 368,-578 368,-572 368,-572 368,-248 368,-248 368,-242 374,-236 380,-236"/>
<text text-anchor="start" x="380" y="-566.6" font-family="Helvetica,sans-Serif" font-weight="bold" font-size="13.00" fill="#bc8cff">HTTP Server (127.0.0.1:8787)</text>
</g>
<g id="clust3" class="cluster">
<title>cluster_handlers</title>
<path fill="#0d1117" stroke="#30363d" stroke-dasharray="5,2" d="M739,-74C739,-74 1073,-74 1073,-74 1079,-74 1085,-80 1085,-86 1085,-86 1085,-769 1085,-769 1085,-775 1079,-781 1073,-781 1073,-781 739,-781 739,-781 733,-781 727,-775 727,-769 727,-769 727,-86 727,-86 727,-80 733,-74 739,-74"/>
<text text-anchor="start" x="739" y="-763.6" font-family="Helvetica,sans-Serif" font-weight="bold" font-size="13.00" fill="#d29922">Route Handlers (src/management/routes/*.ts)</text>
</g>
<g id="clust4" class="cluster">
<title>cluster_store</title>
<path fill="#0d1117" stroke="#30363d" stroke-dasharray="5,2" d="M1285,-393C1285,-393 1534,-393 1534,-393 1540,-393 1546,-399 1546,-405 1546,-405 1546,-539 1546,-539 1546,-545 1540,-551 1534,-551 1534,-551 1285,-551 1285,-551 1279,-551 1273,-545 1273,-539 1273,-539 1273,-405 1273,-405 1273,-399 1279,-393 1285,-393"/>
<text text-anchor="start" x="1285.5" y="-533.6" font-family="Helvetica,sans-Serif" font-weight="bold" font-size="13.00" fill="#39c5cf">MemoryStore Port (domain/ports)</text>
</g>
<g id="clust5" class="cluster">
<title>cluster_data</title>
<path fill="#0d1117" stroke="#30363d" stroke-dasharray="5,2" d="M1648,-440C1648,-440 1790,-440 1790,-440 1796,-440 1802,-446 1802,-452 1802,-452 1802,-721 1802,-721 1802,-727 1796,-733 1790,-733 1790,-733 1648,-733 1648,-733 1642,-733 1636,-727 1636,-721 1636,-721 1636,-452 1636,-452 1636,-446 1642,-440 1648,-440"/>
<text text-anchor="start" x="1648.5" y="-715.6" font-family="Helvetica,sans-Serif" font-weight="bold" font-size="13.00" fill="#3fb950">Data Sources</text>
</g>
<!-- Browser -->
<g id="node1" class="node">
<title>Browser</title>
<path fill="lightgrey" stroke="black" d="M124,-442C124,-442 43,-442 43,-442 37,-442 31,-436 31,-430 31,-430 31,-360 31,-360 31,-354 37,-348 43,-348 43,-348 124,-348 124,-348 130,-348 136,-354 136,-360 136,-360 136,-430 136,-430 136,-436 130,-442 124,-442"/>
<polygon fill="#1f6feb" stroke="transparent" points="39,-352 39,-438 128,-438 128,-352 39,-352"/>
<text text-anchor="start" x="70.5" y="-422.6" font-family="Helvetica,Arial,sans-serif" font-weight="bold" font-size="13.00" fill="white">SPA</text>
<text text-anchor="start" x="45.5" y="-400.8" font-family="Helvetica,Arial,sans-serif" font-size="9.00" fill="white">index.html + app.js</text>
<text text-anchor="start" x="45.5" y="-380.8" font-family="Helvetica,Arial,sans-serif" font-size="9.00" fill="white">vanilla JS, Three.js</text>
<text text-anchor="start" x="45.5" y="-360.8" font-family="Helvetica,Arial,sans-serif" font-size="9.00" fill="white">brain mesh GLB</text>
</g>
<!-- Static -->
<g id="node2" class="node">
<title>Static</title>
<path fill="lightgrey" stroke="black" d="M534,-546C534,-546 446,-546 446,-546 440,-546 434,-540 434,-534 434,-534 434,-486 434,-486 434,-480 440,-474 446,-474 446,-474 534,-474 534,-474 540,-474 546,-480 546,-486 546,-486 546,-534 546,-534 546,-540 540,-546 534,-546"/>
<polygon fill="#8957e5" stroke="transparent" points="442,-478 442,-542 538,-542 538,-478 442,-478"/>
<text text-anchor="start" x="461" y="-528.2" font-family="Helvetica,Arial,sans-serif" font-weight="bold" font-size="11.00" fill="white">Static Files</text>
<text text-anchor="start" x="448" y="-506.8" font-family="Helvetica,Arial,sans-serif" font-size="9.00" fill="white">serveFile()</text>
<text text-anchor="start" x="448" y="-486.8" font-family="Helvetica,Arial,sans-serif" font-size="9.00" fill="white">management/public/</text>
</g>
<!-- Browser&#45;&gt;Static -->
<g id="edge1" class="edge">
<title>Browser&#45;&gt;Static</title>
<path fill="none" stroke="#8b949e" d="M136.14,-409.68C209.47,-430.53 343.72,-468.7 423.82,-491.47"/>
<polygon fill="#8b949e" stroke="#8b949e" points="423.21,-494.93 433.79,-494.3 425.12,-488.2 423.21,-494.93"/>
<text text-anchor="middle" x="268" y="-464.8" font-family="Times,serif" font-size="9.00" fill="#8b949e">GET /</text>
</g>
<!-- Routes -->
<g id="node3" class="node">
<title>Routes</title>
<path fill="lightgrey" stroke="black" d="M549.5,-431C549.5,-431 430.5,-431 430.5,-431 424.5,-431 418.5,-425 418.5,-419 418.5,-419 418.5,-371 418.5,-371 418.5,-365 424.5,-359 430.5,-359 430.5,-359 549.5,-359 549.5,-359 555.5,-359 561.5,-365 561.5,-371 561.5,-371 561.5,-419 561.5,-419 561.5,-425 555.5,-431 549.5,-431"/>
<polygon fill="#bc8cff" stroke="transparent" points="426.5,-363 426.5,-427 553.5,-427 553.5,-363 426.5,-363"/>
<text text-anchor="start" x="467" y="-413.2" font-family="Helvetica,Arial,sans-serif" font-weight="bold" font-size="11.00" fill="white">routes.ts</text>
<text text-anchor="start" x="433" y="-391.8" font-family="Helvetica,Arial,sans-serif" font-size="9.00" fill="white">thin orchestrator</text>
<text text-anchor="start" x="433" y="-371.8" font-family="Helvetica,Arial,sans-serif" font-size="9.00" fill="white">registerRoutes(router, store)</text>
</g>
<!-- Browser&#45;&gt;Routes -->
<g id="edge2" class="edge">
<title>Browser&#45;&gt;Routes</title>
<path fill="none" stroke="#58a6ff" d="M136.14,-395C204.87,-395 327.13,-395 408.15,-395"/>
<polygon fill="#58a6ff" stroke="#58a6ff" points="408.31,-398.5 418.31,-395 408.31,-391.5 408.31,-398.5"/>
<text text-anchor="middle" x="268" y="-397.8" font-family="Times,serif" font-size="9.00" fill="#58a6ff">fetch(&#39;/api/...&#39;) JSON</text>
</g>
<!-- SSE -->
<g id="node4" class="node">
<title>SSE</title>
<path fill="lightgrey" stroke="black" d="M575,-316C575,-316 405,-316 405,-316 399,-316 393,-310 393,-304 393,-304 393,-256 393,-256 393,-250 399,-244 405,-244 405,-244 575,-244 575,-244 581,-244 587,-250 587,-256 587,-256 587,-304 587,-304 587,-310 581,-316 575,-316"/>
<polygon fill="#da3633" stroke="transparent" points="401,-248 401,-312 579,-312 579,-248 401,-248"/>
<text text-anchor="start" x="470" y="-298.2" font-family="Helvetica,Arial,sans-serif" font-weight="bold" font-size="11.00" fill="white">/api/live</text>
<text text-anchor="start" x="407" y="-276.8" font-family="Helvetica,Arial,sans-serif" font-size="9.00" fill="white">Server&#45;Sent Events</text>
<text text-anchor="start" x="407" y="-256.8" font-family="Helvetica,Arial,sans-serif" font-size="9.00" fill="white">getLiveFeedSnapshot + getTokenHistory</text>
</g>
<!-- Browser&#45;&gt;SSE -->
<g id="edge3" class="edge">
<title>Browser&#45;&gt;SSE</title>
<path fill="none" stroke="#da3633" d="M136.14,-380.32C198.03,-362.72 303.32,-332.79 382.82,-310.19"/>
<polygon fill="#da3633" stroke="#da3633" points="384.21,-313.43 392.87,-307.33 382.3,-306.7 384.21,-313.43"/>
<text text-anchor="middle" x="268" y="-373.8" font-family="Times,serif" font-size="9.00" fill="#da3633">new EventSource(&#39;/api/live&#39;)</text>
<text text-anchor="middle" x="268" y="-363.8" font-family="Times,serif" font-size="9.00" fill="#da3633">(fallback: 30s fetch&#45;poll)</text>
</g>
<!-- Sys -->
<g id="node5" class="node">
<title>Sys</title>
<path fill="lightgrey" stroke="black" d="M955,-743C955,-743 856,-743 856,-743 850,-743 844,-737 844,-731 844,-731 844,-675 844,-675 844,-669 850,-663 856,-663 856,-663 955,-663 955,-663 961,-663 967,-669 967,-675 967,-675 967,-731 967,-731 967,-737 961,-743 955,-743"/>
<polygon fill="#d29922" stroke="transparent" points="852,-667 852,-739 959,-739 959,-667 852,-667"/>
<text text-anchor="start" x="883.5" y="-727" font-family="Helvetica,Arial,sans-serif" font-weight="bold" font-size="10.00" fill="white">system.ts</text>
<text text-anchor="start" x="864.5" y="-708.6" font-family="Helvetica,Arial,sans-serif" font-size="8.00" fill="white">/api/scopes · /api/config</text>
<text text-anchor="start" x="857.5" y="-691.6" font-family="Helvetica,Arial,sans-serif" font-size="8.00" fill="white">/api/version · /api/shutdown</text>
<text text-anchor="start" x="864.5" y="-674.6" font-family="Helvetica,Arial,sans-serif" font-size="8.00" fill="white">/api/embeddings&#45;status</text>
</g>
<!-- Routes&#45;&gt;Sys -->
<g id="edge4" class="edge">
<title>Routes&#45;&gt;Sys</title>
<path fill="none" stroke="#8b949e" d="M561.74,-428.91C588.22,-441.6 612,-453 612,-453 612,-453 647,-517 647,-517 647,-517 727,-642 727,-642 727,-642 784.8,-661.86 834.43,-678.92"/>
<polygon fill="#8b949e" stroke="#8b949e" points="833.32,-682.24 843.91,-682.18 835.59,-675.62 833.32,-682.24"/>
<text text-anchor="middle" x="669.5" y="-588.8" font-family="Times,serif" font-size="9.00">delegates</text>
</g>
<!-- Nodes -->
<g id="node6" class="node">
<title>Nodes</title>
<path fill="lightgrey" stroke="black" d="M946.5,-620C946.5,-620 864.5,-620 864.5,-620 858.5,-620 852.5,-614 852.5,-608 852.5,-608 852.5,-552 852.5,-552 852.5,-546 858.5,-540 864.5,-540 864.5,-540 946.5,-540 946.5,-540 952.5,-540 958.5,-546 958.5,-552 958.5,-552 958.5,-608 958.5,-608 958.5,-614 952.5,-620 946.5,-620"/>
<polygon fill="#d29922" stroke="transparent" points="860.5,-544 860.5,-616 950.5,-616 950.5,-544 860.5,-544"/>
<text text-anchor="start" x="885.5" y="-604" font-family="Helvetica,Arial,sans-serif" font-weight="bold" font-size="10.00" fill="white">nodes.ts</text>
<text text-anchor="start" x="868.5" y="-585.6" font-family="Helvetica,Arial,sans-serif" font-size="8.00" fill="white">/api/nodes · /api/links</text>
<text text-anchor="start" x="866.5" y="-568.6" font-family="Helvetica,Arial,sans-serif" font-size="8.00" fill="white">/api/stats · /api/search</text>
<text text-anchor="start" x="865.5" y="-551.6" font-family="Helvetica,Arial,sans-serif" font-size="8.00" fill="white">/api/nodes/:id (CRUD)</text>
</g>
<!-- Routes&#45;&gt;Nodes -->
<g id="edge5" class="edge">
<title>Routes&#45;&gt;Nodes</title>
<path fill="none" stroke="#8b949e" d="M561.74,-428.91C588.22,-441.6 612,-453 612,-453 612,-453 727,-519 727,-519 727,-519 791.29,-541.09 842.49,-558.69"/>
<polygon fill="#8b949e" stroke="#8b949e" points="841.61,-562.09 852.2,-562.03 843.88,-555.47 841.61,-562.09"/>
<text text-anchor="middle" x="669.5" y="-499.8" font-family="Times,serif" font-size="9.00">delegates</text>
</g>
<!-- Backup -->
<g id="node7" class="node">
<title>Backup</title>
<path fill="lightgrey" stroke="black" d="M952.5,-497C952.5,-497 858.5,-497 858.5,-497 852.5,-497 846.5,-491 846.5,-485 846.5,-485 846.5,-429 846.5,-429 846.5,-423 852.5,-417 858.5,-417 858.5,-417 952.5,-417 952.5,-417 958.5,-417 964.5,-423 964.5,-429 964.5,-429 964.5,-485 964.5,-485 964.5,-491 958.5,-497 952.5,-497"/>
<polygon fill="#d29922" stroke="transparent" points="854.5,-421 854.5,-493 956.5,-493 956.5,-421 854.5,-421"/>
<text text-anchor="start" x="882.5" y="-481" font-family="Helvetica,Arial,sans-serif" font-weight="bold" font-size="10.00" fill="white">backup.ts</text>
<text text-anchor="start" x="869.5" y="-462.6" font-family="Helvetica,Arial,sans-serif" font-size="8.00" fill="white">/api/backup&#45;sources</text>
<text text-anchor="start" x="859.5" y="-445.6" font-family="Helvetica,Arial,sans-serif" font-size="8.00" fill="white">/api/backups · /api/backup</text>
<text text-anchor="start" x="885.5" y="-428.6" font-family="Helvetica,Arial,sans-serif" font-size="8.00" fill="white">/api/restore</text>
</g>
<!-- Routes&#45;&gt;Backup -->
<g id="edge6" class="edge">
<title>Routes&#45;&gt;Backup</title>
<path fill="none" stroke="#8b949e" d="M561.61,-405.59C638.44,-417.11 760.4,-435.39 836.27,-446.77"/>
<polygon fill="#8b949e" stroke="#8b949e" points="835.8,-450.24 846.2,-448.26 836.83,-443.31 835.8,-450.24"/>
<text text-anchor="middle" x="669.5" y="-426.8" font-family="Times,serif" font-size="9.00">delegates</text>
</g>
<!-- Telemetry -->
<g id="node8" class="node">
<title>Telemetry</title>
<path fill="lightgrey" stroke="black" d="M941.5,-374C941.5,-374 869.5,-374 869.5,-374 863.5,-374 857.5,-368 857.5,-362 857.5,-362 857.5,-306 857.5,-306 857.5,-300 863.5,-294 869.5,-294 869.5,-294 941.5,-294 941.5,-294 947.5,-294 953.5,-300 953.5,-306 953.5,-306 953.5,-362 953.5,-362 953.5,-368 947.5,-374 941.5,-374"/>
<polygon fill="#d29922" stroke="transparent" points="865.5,-298 865.5,-370 945.5,-370 945.5,-298 865.5,-298"/>
<text text-anchor="start" x="878" y="-358" font-family="Helvetica,Arial,sans-serif" font-weight="bold" font-size="10.00" fill="white">telemetry.ts</text>
<text text-anchor="start" x="871" y="-339.6" font-family="Helvetica,Arial,sans-serif" font-size="8.00" fill="white">/api/compress&#45;stats</text>
<text text-anchor="start" x="875" y="-322.6" font-family="Helvetica,Arial,sans-serif" font-size="8.00" fill="white">/api/token&#45;history</text>
<text text-anchor="start" x="870.5" y="-305.6" font-family="Helvetica,Arial,sans-serif" font-size="8.00" fill="white">/api/injection&#45;quality</text>
</g>
<!-- Routes&#45;&gt;Telemetry -->
<g id="edge7" class="edge">
<title>Routes&#45;&gt;Telemetry</title>
<path fill="none" stroke="#8b949e" d="M561.61,-384.58C642.24,-372.69 772.6,-353.46 847.21,-342.45"/>
<polygon fill="#8b949e" stroke="#8b949e" points="847.97,-345.88 857.35,-340.96 846.95,-338.95 847.97,-345.88"/>
<text text-anchor="middle" x="669.5" y="-373.8" font-family="Times,serif" font-size="9.00">delegates</text>
</g>
<!-- GraphR -->
<g id="node9" class="node">
<title>GraphR</title>
<path fill="lightgrey" stroke="black" d="M950.5,-251C950.5,-251 860.5,-251 860.5,-251 854.5,-251 848.5,-245 848.5,-239 848.5,-239 848.5,-183 848.5,-183 848.5,-177 854.5,-171 860.5,-171 860.5,-171 950.5,-171 950.5,-171 956.5,-171 962.5,-177 962.5,-183 962.5,-183 962.5,-239 962.5,-239 962.5,-245 956.5,-251 950.5,-251"/>
<polygon fill="#d29922" stroke="transparent" points="856.5,-175 856.5,-247 954.5,-247 954.5,-175 856.5,-175"/>
<text text-anchor="start" x="886" y="-235" font-family="Helvetica,Arial,sans-serif" font-weight="bold" font-size="10.00" fill="white">graph.ts</text>
<text text-anchor="start" x="878" y="-216.6" font-family="Helvetica,Arial,sans-serif" font-size="8.00" fill="white">/api/graph/build</text>
<text text-anchor="start" x="865" y="-199.6" font-family="Helvetica,Arial,sans-serif" font-size="8.00" fill="white">/api/graph/search|path</text>
<text text-anchor="start" x="861.5" y="-182.6" font-family="Helvetica,Arial,sans-serif" font-size="8.00" fill="white">/api/graph/explain|export</text>
</g>
<!-- Routes&#45;&gt;GraphR -->
<g id="edge8" class="edge">
<title>Routes&#45;&gt;GraphR</title>
<path fill="none" stroke="#8b949e" d="M561.74,-361.68C588.22,-349.2 612,-338 612,-338 612,-338 727,-273 727,-273 727,-273 788.19,-251.63 838.72,-233.98"/>
<polygon fill="#8b949e" stroke="#8b949e" points="840.05,-237.22 848.34,-230.62 837.74,-230.61 840.05,-237.22"/>
<text text-anchor="middle" x="669.5" y="-318.8" font-family="Times,serif" font-size="9.00">delegates</text>
</g>
<!-- Store -->
<g id="node11" class="node">
<title>Store</title>
<path fill="lightgrey" stroke="black" d="M1491,-513C1491,-513 1328,-513 1328,-513 1322,-513 1316,-507 1316,-501 1316,-501 1316,-413 1316,-413 1316,-407 1322,-401 1328,-401 1328,-401 1491,-401 1491,-401 1497,-401 1503,-407 1503,-413 1503,-413 1503,-501 1503,-501 1503,-507 1497,-513 1491,-513"/>
<polygon fill="#39c5cf" stroke="transparent" points="1324,-405 1324,-509 1495,-509 1495,-405 1324,-405"/>
<text text-anchor="start" x="1374.5" y="-495.2" font-family="Helvetica,Arial,sans-serif" font-weight="bold" font-size="11.00" fill="white">MemoryStore</text>
<text text-anchor="start" x="1330.5" y="-473.8" font-family="Helvetica,Arial,sans-serif" font-size="9.00" fill="white">listNodes · getLiveFeedSnapshot</text>
<text text-anchor="start" x="1330.5" y="-453.8" font-family="Helvetica,Arial,sans-serif" font-size="9.00" fill="white">getTokenHistory · searchByEmbedding</text>
<text text-anchor="start" x="1330.5" y="-433.8" font-family="Helvetica,Arial,sans-serif" font-size="9.00" fill="white">hexagonal boundary —</text>
<text text-anchor="start" x="1330.5" y="-413.8" font-family="Helvetica,Arial,sans-serif" font-size="9.00" fill="white">handlers never touch SQLite</text>
</g>
<!-- SSE&#45;&gt;Store -->
<g id="edge14" class="edge">
<title>SSE&#45;&gt;Store</title>
<path fill="none" stroke="#da3633" d="M528.66,-243.94C595.29,-180.13 727,-54 727,-54 727,-54 1085,-54 1085,-54 1085,-54 1265.85,-279.29 1357.11,-392.98"/>
<polygon fill="#da3633" stroke="#da3633" points="1354.53,-395.36 1363.52,-400.96 1359.99,-390.98 1354.53,-395.36"/>
<text text-anchor="middle" x="905.5" y="-56.8" font-family="Times,serif" font-size="9.00" fill="#da3633">live snapshot</text>
</g>
<!-- Sys&#45;&gt;Store -->
<g id="edge9" class="edge">
<title>Sys&#45;&gt;Store</title>
<path fill="none" stroke="#d29922" d="M967.43,-682.18C1019.14,-664.51 1085,-642 1085,-642 1085,-642 1212.14,-569.29 1307.01,-515.04"/>
<polygon fill="#d29922" stroke="#d29922" points="1308.85,-518.02 1315.8,-510.01 1305.38,-511.94 1308.85,-518.02"/>
<text text-anchor="middle" x="1179" y="-621.8" font-family="Times,serif" font-size="9.00" fill="#d29922">MemoryStore calls</text>
</g>
<!-- ConfigFile -->
<g id="node13" class="node">
<title>ConfigFile</title>
<path fill="lightgrey" stroke="black" d="M1775,-695C1775,-695 1663,-695 1663,-695 1657,-695 1651,-689 1651,-683 1651,-683 1651,-595 1651,-595 1651,-589 1657,-583 1663,-583 1663,-583 1775,-583 1775,-583 1781,-583 1787,-589 1787,-595 1787,-595 1787,-683 1787,-683 1787,-689 1781,-695 1775,-695"/>
<polygon fill="#238636" stroke="transparent" points="1659,-587 1659,-691 1779,-691 1779,-587 1659,-587"/>
<text text-anchor="start" x="1665" y="-677.2" font-family="Helvetica,Arial,sans-serif" font-weight="bold" font-size="11.00" fill="white">opencode&#45;mem.json</text>
<text text-anchor="start" x="1665" y="-655.8" font-family="Helvetica,Arial,sans-serif" font-size="9.00" fill="white">on&#45;disk config</text>
<text text-anchor="start" x="1665" y="-635.8" font-family="Helvetica,Arial,sans-serif" font-size="9.00" fill="white">read/write via</text>
<text text-anchor="start" x="1665" y="-615.8" font-family="Helvetica,Arial,sans-serif" font-size="9.00" fill="white">readProjectConfig /</text>
<text text-anchor="start" x="1665" y="-595.8" font-family="Helvetica,Arial,sans-serif" font-size="9.00" fill="white">writeProjectConfig</text>
</g>
<!-- Sys&#45;&gt;ConfigFile -->
<g id="edge15" class="edge">
<title>Sys&#45;&gt;ConfigFile</title>
<path fill="none" stroke="#238636" d="M967.16,-698.22C1112.35,-686.76 1479.71,-657.79 1640.56,-645.11"/>
<polygon fill="#238636" stroke="#238636" points="1641.16,-648.57 1650.85,-644.3 1640.61,-641.59 1641.16,-648.57"/>
<text text-anchor="middle" x="1409.5" y="-675.8" font-family="Times,serif" font-size="9.00" fill="#238636">config JSON</text>
</g>
<!-- Nodes&#45;&gt;Store -->
<g id="edge10" class="edge">
<title>Nodes&#45;&gt;Store</title>
<path fill="none" stroke="#d29922" d="M958.8,-567.18C1040.66,-547.13 1200.58,-507.94 1305.97,-482.12"/>
<polygon fill="#d29922" stroke="#d29922" points="1307.12,-485.44 1316,-479.66 1305.45,-478.65 1307.12,-485.44"/>
<text text-anchor="middle" x="1179" y="-527.8" font-family="Times,serif" font-size="9.00" fill="#d29922">listNodes(...) → mapNode</text>
</g>
<!-- Backup&#45;&gt;Store -->
<g id="edge11" class="edge">
<title>Backup&#45;&gt;Store</title>
<path fill="none" stroke="#d29922" d="M964.58,-457C1047.88,-457 1202.56,-457 1305.53,-457"/>
<polygon fill="#d29922" stroke="#d29922" points="1305.64,-460.5 1315.64,-457 1305.64,-453.5 1305.64,-460.5"/>
<text text-anchor="middle" x="1179" y="-459.8" font-family="Times,serif" font-size="9.00" fill="#d29922">backup/restore ops</text>
</g>
<!-- Telemetry&#45;&gt;Store -->
<g id="edge12" class="edge">
<title>Telemetry&#45;&gt;Store</title>
<path fill="none" stroke="#d29922" d="M953.73,-345.57C1033.84,-365.2 1198.16,-405.46 1305.78,-431.83"/>
<polygon fill="#d29922" stroke="#d29922" points="1305.14,-435.28 1315.69,-434.26 1306.81,-428.48 1305.14,-435.28"/>
<text text-anchor="middle" x="1179" y="-415.8" font-family="Times,serif" font-size="9.00" fill="#d29922">stats queries</text>
</g>
<!-- GraphR&#45;&gt;Store -->
<g id="edge13" class="edge">
<title>GraphR&#45;&gt;Store</title>
<path fill="none" stroke="#d29922" d="M962.98,-230.62C1015.27,-248.78 1085,-273 1085,-273 1085,-273 1212.14,-345.32 1307.01,-399.28"/>
<polygon fill="#d29922" stroke="#d29922" points="1305.38,-402.37 1315.8,-404.27 1308.84,-396.29 1305.38,-402.37"/>
<text text-anchor="middle" x="1179" y="-361.8" font-family="Times,serif" font-size="9.00" fill="#d29922">graph queries</text>
</g>
<!-- Common -->
<g id="node10" class="node">
<title>Common</title>
<path fill="lightgrey" stroke="black" d="M944.5,-128C944.5,-128 866.5,-128 866.5,-128 860.5,-128 854.5,-122 854.5,-116 854.5,-116 854.5,-94 854.5,-94 854.5,-88 860.5,-82 866.5,-82 866.5,-82 944.5,-82 944.5,-82 950.5,-82 956.5,-88 956.5,-94 956.5,-94 956.5,-116 956.5,-116 956.5,-122 950.5,-128 944.5,-128"/>
<polygon fill="#30363d" stroke="transparent" points="862.5,-86 862.5,-124 948.5,-124 948.5,-86 862.5,-86"/>
<text text-anchor="start" x="879" y="-112" font-family="Helvetica,Arial,sans-serif" font-weight="bold" font-size="10.00" fill="white">common.ts</text>
<text text-anchor="start" x="867.5" y="-93.6" font-family="Helvetica,Arial,sans-serif" font-size="8.00" fill="white">jsonResponse helper</text>
</g>
<!-- SQLite -->
<g id="node12" class="node">
<title>SQLite</title>
<path fill="lightgrey" stroke="black" d="M1782,-540C1782,-540 1656,-540 1656,-540 1650,-540 1644,-534 1644,-528 1644,-528 1644,-460 1644,-460 1644,-454 1650,-448 1656,-448 1656,-448 1782,-448 1782,-448 1788,-448 1794,-454 1794,-460 1794,-460 1794,-528 1794,-528 1794,-534 1788,-540 1782,-540"/>
<polygon fill="#238636" stroke="transparent" points="1652,-452 1652,-536 1786,-536 1786,-452 1652,-452"/>
<text text-anchor="start" x="1666.5" y="-522.2" font-family="Helvetica,Arial,sans-serif" font-weight="bold" font-size="11.00" fill="white">memory.db (SQLite)</text>
<text text-anchor="start" x="1658" y="-500.8" font-family="Helvetica,Arial,sans-serif" font-size="9.00" fill="white">nodes · links · temporal edges</text>
<text text-anchor="start" x="1658" y="-480.8" font-family="Helvetica,Arial,sans-serif" font-size="9.00" fill="white">injection_metrics</text>
<text text-anchor="start" x="1658" y="-460.8" font-family="Helvetica,Arial,sans-serif" font-size="9.00" fill="white">token history · compress stats</text>
</g>
<!-- Store&#45;&gt;SQLite -->
<g id="edge16" class="edge">
<title>Store&#45;&gt;SQLite</title>
<path fill="none" stroke="#39c5cf" d="M1503.18,-468.15C1544.58,-473.13 1593.05,-478.97 1633.46,-483.83"/>
<polygon fill="#39c5cf" stroke="#39c5cf" points="1633.2,-487.32 1643.55,-485.04 1634.04,-480.37 1633.2,-487.32"/>
<text text-anchor="middle" x="1591" y="-481.8" font-family="Times,serif" font-size="9.00" fill="#39c5cf">SQL</text>
</g>
</g>
</svg>
