<?xml version="1.0" encoding="UTF-8" standalone="no"?>
<!DOCTYPE svg PUBLIC "-//W3C//DTD SVG 1.1//EN"
 "http://www.w3.org/Graphics/SVG/1.1/DTD/svg11.dtd">
<!-- Generated by graphviz version 2.43.0 (0)
 -->
<!-- Title: search_pipeline Pages: 1 -->
<svg width="2553pt" height="507pt"
 viewBox="0.00 0.00 2552.84 507.00" xmlns="http://www.w3.org/2000/svg" xmlns:xlink="http://www.w3.org/1999/xlink">
<g id="graph0" class="graph" transform="scale(1 1) rotate(0) translate(4 503)">
<title>search_pipeline</title>
<polygon fill="white" stroke="transparent" points="-4,4 -4,-503 2548.84,-503 2548.84,4 -4,4"/>
<g id="clust2" class="cluster">
<title>cluster_semantic</title>
<polygon fill="#e3f2fd" stroke="black" points="315,-382 315,-491 943,-491 943,-382 315,-382"/>
<text text-anchor="middle" x="629" y="-479" font-family="monospace" font-size="10.00">Semantic Path</text>
</g>
<g id="clust1" class="cluster">
<title>cluster_input</title>
<polygon fill="none" stroke="black" stroke-dasharray="5,2" points="52,-223 52,-294 145,-294 145,-223 52,-223"/>
<text text-anchor="middle" x="98.5" y="-282" font-family="monospace" font-size="10.00">Input</text>
</g>
<g id="clust3" class="cluster">
<title>cluster_keyword</title>
<polygon fill="#fff3e0" stroke="black" points="297,-220 297,-374 940,-374 940,-220 297,-220"/>
<text text-anchor="middle" x="618.5" y="-362" font-family="monospace" font-size="10.00">Keyword Path (Dual Retrieval)</text>
</g>
<g id="clust4" class="cluster">
<title>cluster_hybrid</title>
<polygon fill="#e8f5e9" stroke="black" points="1066,-228 1066,-393 1595,-393 1595,-228 1066,-228"/>
<text text-anchor="middle" x="1330.5" y="-381" font-family="monospace" font-size="10.00">Hybrid Scoring + Merge</text>
</g>
<g id="clust5" class="cluster">
<title>cluster_post</title>
<polygon fill="#f3e5f5" stroke="black" points="1786,-283 1786,-382 2357,-382 2357,-283 1786,-283"/>
<text text-anchor="middle" x="2071.5" y="-370" font-family="monospace" font-size="10.00">Post&#45;Processing</text>
</g>
<!-- query -->
<g id="node1" class="node">
<title>query</title>
<path fill="none" stroke="black" d="M125,-267C125,-267 72,-267 72,-267 66,-267 60,-261 60,-255 60,-255 60,-243 60,-243 60,-237 66,-231 72,-231 72,-231 125,-231 125,-231 131,-231 137,-237 137,-243 137,-243 137,-255 137,-255 137,-261 131,-267 125,-267"/>
<text text-anchor="middle" x="98.5" y="-252" font-family="monospace" font-size="10.00">User Query</text>
<text text-anchor="middle" x="98.5" y="-241" font-family="monospace" font-size="10.00">(string)</text>
</g>
<!-- embed -->
<g id="node2" class="node">
<title>embed</title>
<path fill="none" stroke="black" d="M454,-439.5C454,-439.5 335,-439.5 335,-439.5 329,-439.5 323,-433.5 323,-427.5 323,-427.5 323,-410.5 323,-410.5 323,-404.5 329,-398.5 335,-398.5 335,-398.5 454,-398.5 454,-398.5 460,-398.5 466,-404.5 466,-410.5 466,-410.5 466,-427.5 466,-427.5 466,-433.5 460,-439.5 454,-439.5"/>
<text text-anchor="middle" x="394.5" y="-427.5" font-family="monospace" font-size="10.00">generateEmbedding()</text>
<text text-anchor="middle" x="394.5" y="-416.5" font-family="monospace" font-size="10.00">ONNX all&#45;MiniLM&#45;L6&#45;v2</text>
<text text-anchor="middle" x="394.5" y="-405.5" font-family="monospace" font-size="10.00">384&#45;dim</text>
</g>
<!-- query&#45;&gt;embed -->
<g id="edge1" class="edge">
<title>query&#45;&gt;embed</title>
<path fill="none" stroke="black" d="M85.84,-267.19C85.84,-311.05 85.84,-419 85.84,-419 85.84,-419 312.91,-419 312.91,-419"/>
<polygon fill="black" stroke="black" points="312.91,-422.5 322.91,-419 312.91,-415.5 312.91,-422.5"/>
</g>
<!-- all_nodes -->
<g id="node6" class="node">
<title>all_nodes</title>
<path fill="none" stroke="black" d="M472,-269.5C472,-269.5 317,-269.5 317,-269.5 311,-269.5 305,-263.5 305,-257.5 305,-257.5 305,-240.5 305,-240.5 305,-234.5 311,-228.5 317,-228.5 317,-228.5 472,-228.5 472,-228.5 478,-228.5 484,-234.5 484,-240.5 484,-240.5 484,-257.5 484,-257.5 484,-263.5 478,-269.5 472,-269.5"/>
<text text-anchor="middle" x="394.5" y="-257.5" font-family="monospace" font-size="10.00">All scope node IDs</text>
<text text-anchor="middle" x="394.5" y="-246.5" font-family="monospace" font-size="10.00">SELECT id FROM memory_nodes</text>
<text text-anchor="middle" x="394.5" y="-235.5" font-family="monospace" font-size="10.00">WHERE not expired</text>
</g>
<!-- query&#45;&gt;all_nodes -->
<g id="edge3" class="edge">
<title>query&#45;&gt;all_nodes</title>
<path fill="none" stroke="black" stroke-dasharray="5,2" d="M137.2,-249C137.2,-249 294.75,-249 294.75,-249"/>
<polygon fill="black" stroke="black" points="294.75,-252.5 304.75,-249 294.75,-245.5 294.75,-252.5"/>
<text text-anchor="middle" x="251" y="-251.8" font-family="monospace" font-size="9.00">if queryText</text>
</g>
<!-- bm25_score -->
<g id="node7" class="node">
<title>bm25_score</title>
<path fill="none" stroke="black" d="M669,-285C669,-285 544,-285 544,-285 538,-285 532,-279 532,-273 532,-273 532,-245 532,-245 532,-239 538,-233 544,-233 544,-233 669,-233 669,-233 675,-233 681,-239 681,-245 681,-245 681,-273 681,-273 681,-279 675,-285 669,-285"/>
<text text-anchor="middle" x="606.5" y="-273" font-family="monospace" font-size="10.00">computeBM25ScoresSQL()</text>
<text text-anchor="middle" x="606.5" y="-262" font-family="monospace" font-size="10.00">on ALL scope nodes</text>
<text text-anchor="middle" x="606.5" y="-251" font-family="monospace" font-size="10.00">batched SQL queries</text>
<text text-anchor="middle" x="606.5" y="-240" font-family="monospace" font-size="10.00">k1=1.2, b=0.75</text>
</g>
<!-- query&#45;&gt;bm25_score -->
<g id="edge2" class="edge">
<title>query&#45;&gt;bm25_score</title>
<path fill="none" stroke="black" stroke-dasharray="5,2" d="M111.84,-267.1C111.84,-271.35 111.84,-274.67 111.84,-274.67 111.84,-274.67 521.91,-274.67 521.91,-274.67"/>
<polygon fill="black" stroke="black" points="521.91,-278.17 531.91,-274.67 521.91,-271.17 521.91,-278.17"/>
<text text-anchor="middle" x="394.5" y="-184.8" font-family="monospace" font-size="9.00">if queryText</text>
</g>
<!-- hnsw -->
<g id="node3" class="node">
<title>hnsw</title>
<path fill="none" stroke="black" d="M672,-444.5C672,-444.5 541,-444.5 541,-444.5 535,-444.5 529,-438.5 529,-432.5 529,-432.5 529,-415.5 529,-415.5 529,-409.5 535,-403.5 541,-403.5 541,-403.5 672,-403.5 672,-403.5 678,-403.5 684,-409.5 684,-415.5 684,-415.5 684,-432.5 684,-432.5 684,-438.5 678,-444.5 672,-444.5"/>
<text text-anchor="middle" x="606.5" y="-432.5" font-family="monospace" font-size="10.00">HNSW Index</text>
<text text-anchor="middle" x="606.5" y="-421.5" font-family="monospace" font-size="10.00">search(query_embedding)</text>
<text text-anchor="middle" x="606.5" y="-410.5" font-family="monospace" font-size="10.00">top limit*5</text>
</g>
<!-- embed&#45;&gt;hnsw -->
<g id="edge6" class="edge">
<title>embed&#45;&gt;hnsw</title>
<path fill="none" stroke="black" d="M466.27,-421.5C466.27,-421.5 518.99,-421.5 518.99,-421.5"/>
<polygon fill="black" stroke="black" points="518.99,-425 528.99,-421.5 518.99,-418 518.99,-425"/>
</g>
<!-- cosine -->
<g id="node4" class="node">
<title>cosine</title>
<path fill="none" stroke="black" d="M923,-464C923,-464 798,-464 798,-464 792,-464 786,-458 786,-452 786,-452 786,-402 786,-402 786,-396 792,-390 798,-390 798,-390 923,-390 923,-390 929,-390 935,-396 935,-402 935,-402 935,-452 935,-452 935,-458 929,-464 923,-464"/>
<text text-anchor="middle" x="860.5" y="-452" font-family="monospace" font-size="10.00">Cosine Similarity</text>
<text text-anchor="middle" x="860.5" y="-441" font-family="monospace" font-size="10.00">importance = hnswScore</text>
<text text-anchor="middle" x="860.5" y="-430" font-family="monospace" font-size="10.00">* levelWeight</text>
<text text-anchor="middle" x="860.5" y="-419" font-family="monospace" font-size="10.00">* confidenceWeight</text>
<text text-anchor="middle" x="860.5" y="-408" font-family="monospace" font-size="10.00">* categoryWeight</text>
<text text-anchor="middle" x="860.5" y="-397" font-family="monospace" font-size="10.00">* (1 + usefulness*0.1)</text>
</g>
<!-- hnsw&#45;&gt;cosine -->
<g id="edge7" class="edge">
<title>hnsw&#45;&gt;cosine</title>
<path fill="none" stroke="black" d="M684.09,-424C684.09,-424 776,-424 776,-424"/>
<polygon fill="black" stroke="black" points="776,-427.5 786,-424 776,-420.5 776,-427.5"/>
</g>
<!-- merge -->
<g id="node9" class="node">
<title>merge</title>
<path fill="none" stroke="black" d="M1247,-365.5C1247,-365.5 1086,-365.5 1086,-365.5 1080,-365.5 1074,-359.5 1074,-353.5 1074,-353.5 1074,-336.5 1074,-336.5 1074,-330.5 1080,-324.5 1086,-324.5 1086,-324.5 1247,-324.5 1247,-324.5 1253,-324.5 1259,-330.5 1259,-336.5 1259,-336.5 1259,-353.5 1259,-353.5 1259,-359.5 1253,-365.5 1247,-365.5"/>
<text text-anchor="middle" x="1166.5" y="-353.5" font-family="monospace" font-size="10.00">Merge candidates</text>
<text text-anchor="middle" x="1166.5" y="-342.5" font-family="monospace" font-size="10.00">HNSW semantic + BM25 keyword</text>
<text text-anchor="middle" x="1166.5" y="-331.5" font-family="monospace" font-size="10.00">deduplicate by id</text>
</g>
<!-- cosine&#45;&gt;merge -->
<g id="edge8" class="edge">
<title>cosine&#45;&gt;merge</title>
<path fill="none" stroke="black" d="M836.84,-389.84C836.84,-372.66 836.84,-356 836.84,-356 836.84,-356 1063.79,-356 1063.79,-356"/>
<polygon fill="black" stroke="black" points="1063.79,-359.5 1073.79,-356 1063.79,-352.5 1063.79,-359.5"/>
</g>
<!-- bm25_db -->
<g id="node5" class="node">
<title>bm25_db</title>
<path fill="none" stroke="black" d="M433,-346.5C433,-346.5 356,-346.5 356,-346.5 350,-346.5 344,-340.5 344,-334.5 344,-334.5 344,-317.5 344,-317.5 344,-311.5 350,-305.5 356,-305.5 356,-305.5 433,-305.5 433,-305.5 439,-305.5 445,-311.5 445,-317.5 445,-317.5 445,-334.5 445,-334.5 445,-340.5 439,-346.5 433,-346.5"/>
<text text-anchor="middle" x="394.5" y="-334.5" font-family="monospace" font-size="10.00">BM25 Index</text>
<text text-anchor="middle" x="394.5" y="-323.5" font-family="monospace" font-size="10.00">bm25_index</text>
<text text-anchor="middle" x="394.5" y="-312.5" font-family="monospace" font-size="10.00">bm25_doc_stats</text>
</g>
<!-- bm25_db&#45;&gt;bm25_score -->
<g id="edge11" class="edge">
<title>bm25_db&#45;&gt;bm25_score</title>
<path fill="none" stroke="black" d="M394.84,-305.35C394.84,-293.06 394.84,-279.83 394.84,-279.83 394.84,-279.83 521.88,-279.83 521.88,-279.83"/>
<polygon fill="black" stroke="black" points="521.88,-283.33 531.88,-279.83 521.88,-276.33 521.88,-283.33"/>
</g>
<!-- all_nodes&#45;&gt;bm25_score -->
<g id="edge4" class="edge">
<title>all_nodes&#45;&gt;bm25_score</title>
<path fill="none" stroke="black" d="M484.1,-251.25C484.1,-251.25 521.93,-251.25 521.93,-251.25"/>
<polygon fill="black" stroke="black" points="521.93,-254.75 531.93,-251.25 521.93,-247.75 521.93,-254.75"/>
</g>
<!-- bm25_only -->
<g id="node8" class="node">
<title>bm25_only</title>
<path fill="none" stroke="black" d="M920,-319.5C920,-319.5 801,-319.5 801,-319.5 795,-319.5 789,-313.5 789,-307.5 789,-307.5 789,-268.5 789,-268.5 789,-262.5 795,-256.5 801,-256.5 801,-256.5 920,-256.5 920,-256.5 926,-256.5 932,-262.5 932,-268.5 932,-268.5 932,-307.5 932,-307.5 932,-313.5 926,-319.5 920,-319.5"/>
<text text-anchor="middle" x="860.5" y="-307.5" font-family="monospace" font-size="10.00">BM25&#45;only candidates</text>
<text text-anchor="middle" x="860.5" y="-296.5" font-family="monospace" font-size="10.00">(top limit*3)</text>
<text text-anchor="middle" x="860.5" y="-285.5" font-family="monospace" font-size="10.00">not in HNSW results</text>
<text text-anchor="middle" x="860.5" y="-274.5" font-family="monospace" font-size="10.00">+ options filters</text>
<text text-anchor="middle" x="860.5" y="-263.5" font-family="monospace" font-size="10.00">+ weighted importance</text>
</g>
<!-- bm25_score&#45;&gt;bm25_only -->
<g id="edge5" class="edge">
<title>bm25_score&#45;&gt;bm25_only</title>
<path fill="none" stroke="black" d="M681.33,-270.75C681.33,-270.75 778.82,-270.75 778.82,-270.75"/>
<polygon fill="black" stroke="black" points="778.82,-274.25 788.82,-270.75 778.82,-267.25 778.82,-274.25"/>
<text text-anchor="middle" x="735" y="-288.8" font-family="monospace" font-size="9.00">top limit*3</text>
<text text-anchor="middle" x="735" y="-278.8" font-family="monospace" font-size="9.00">not in HNSW</text>
</g>
<!-- bm25_only&#45;&gt;merge -->
<g id="edge9" class="edge">
<title>bm25_only&#45;&gt;merge</title>
<path fill="none" stroke="black" d="M884.84,-319.68C884.84,-328.4 884.84,-335.5 884.84,-335.5 884.84,-335.5 1063.88,-335.5 1063.88,-335.5"/>
<polygon fill="black" stroke="black" points="1063.88,-339 1073.88,-335.5 1063.88,-332 1063.88,-339"/>
<text text-anchor="middle" x="1004.5" y="-301.8" font-family="monospace" font-size="9.00">keyword candidates</text>
</g>
<!-- final -->
<g id="node11" class="node">
<title>final</title>
<path fill="none" stroke="black" d="M1575,-326.5C1575,-326.5 1384,-326.5 1384,-326.5 1378,-326.5 1372,-320.5 1372,-314.5 1372,-314.5 1372,-275.5 1372,-275.5 1372,-269.5 1378,-263.5 1384,-263.5 1384,-263.5 1575,-263.5 1575,-263.5 1581,-263.5 1587,-269.5 1587,-275.5 1587,-275.5 1587,-314.5 1587,-314.5 1587,-320.5 1581,-326.5 1575,-326.5"/>
<text text-anchor="middle" x="1479.5" y="-314.5" font-family="monospace" font-size="10.00">computeFinalScores()</text>
<text text-anchor="middle" x="1479.5" y="-303.5" font-family="monospace" font-size="10.00">finalScore = (semantic * (1&#45;dynW)</text>
<text text-anchor="middle" x="1479.5" y="-292.5" font-family="monospace" font-size="10.00"> &#160;&#160;&#160;&#160;&#160;&#160;&#160;&#160;&#160;&#160;+ bm25 * dynW)</text>
<text text-anchor="middle" x="1479.5" y="-281.5" font-family="monospace" font-size="10.00"> &#160;&#160;&#160;&#160;&#160;&#160;&#160;&#160;&#160;&#160;* (1 + recency*0.2)</text>
<text text-anchor="middle" x="1479.5" y="-270.5" font-family="monospace" font-size="10.00">recency = exp(&#45;hrs/24)</text>
</g>
<!-- merge&#45;&gt;final -->
<g id="edge10" class="edge">
<title>merge&#45;&gt;final</title>
<path fill="none" stroke="black" d="M1166.84,-324.38C1166.84,-314.06 1166.84,-303.75 1166.84,-303.75 1166.84,-303.75 1361.9,-303.75 1361.9,-303.75"/>
<polygon fill="black" stroke="black" points="1361.9,-307.25 1371.9,-303.75 1361.9,-300.25 1361.9,-307.25"/>
</g>
<!-- weight -->
<g id="node10" class="node">
<title>weight</title>
<path fill="none" stroke="black" d="M1247,-288C1247,-288 1086,-288 1086,-288 1080,-288 1074,-282 1074,-276 1074,-276 1074,-248 1074,-248 1074,-242 1080,-236 1086,-236 1086,-236 1247,-236 1247,-236 1253,-236 1259,-242 1259,-248 1259,-248 1259,-276 1259,-276 1259,-282 1253,-288 1247,-288"/>
<text text-anchor="middle" x="1166.5" y="-276" font-family="monospace" font-size="10.00">calculateDynamicBm25Weight()</text>
<text text-anchor="middle" x="1166.5" y="-265" font-family="monospace" font-size="10.00">base: 0.4</text>
<text text-anchor="middle" x="1166.5" y="-254" font-family="monospace" font-size="10.00">code queries: &gt;= 0.7</text>
<text text-anchor="middle" x="1166.5" y="-243" font-family="monospace" font-size="10.00">long queries: decays to 0.3</text>
</g>
<!-- weight&#45;&gt;final -->
<g id="edge12" class="edge">
<title>weight&#45;&gt;final</title>
<path fill="none" stroke="black" stroke-dasharray="1,5" d="M1259.14,-275.75C1259.14,-275.75 1361.95,-275.75 1361.95,-275.75"/>
<polygon fill="black" stroke="black" points="1361.95,-279.25 1371.95,-275.75 1361.95,-272.25 1361.95,-279.25"/>
<text text-anchor="middle" x="1315.5" y="-278.8" font-family="monospace" font-size="9.00">provides dynW</text>
</g>
<!-- rerank -->
<g id="node12" class="node">
<title>rerank</title>
<path fill="none" stroke="black" d="M1967,-354.5C1967,-354.5 1806,-354.5 1806,-354.5 1800,-354.5 1794,-348.5 1794,-342.5 1794,-342.5 1794,-303.5 1794,-303.5 1794,-297.5 1800,-291.5 1806,-291.5 1806,-291.5 1967,-291.5 1967,-291.5 1973,-291.5 1979,-297.5 1979,-303.5 1979,-303.5 1979,-342.5 1979,-342.5 1979,-348.5 1973,-354.5 1967,-354.5"/>
<text text-anchor="middle" x="1886.5" y="-342.5" font-family="monospace" font-size="10.00">rerankResults()</text>
<text text-anchor="middle" x="1886.5" y="-331.5" font-family="monospace" font-size="10.00">keyword overlap (40%)</text>
<text text-anchor="middle" x="1886.5" y="-320.5" font-family="monospace" font-size="10.00">first&#45;line match</text>
<text text-anchor="middle" x="1886.5" y="-309.5" font-family="monospace" font-size="10.00">term density</text>
<text text-anchor="middle" x="1886.5" y="-298.5" font-family="monospace" font-size="10.00">blend: orig*0.7 + rerank*0.3</text>
</g>
<!-- final&#45;&gt;rerank -->
<g id="edge13" class="edge">
<title>final&#45;&gt;rerank</title>
<path fill="none" stroke="black" stroke-dasharray="5,2" d="M1587.23,-309C1587.23,-309 1783.78,-309 1783.78,-309"/>
<polygon fill="black" stroke="black" points="1783.78,-312.5 1793.78,-309 1783.78,-305.5 1783.78,-312.5"/>
<text text-anchor="middle" x="1690.5" y="-316.8" font-family="monospace" font-size="9.00">if rerank &amp;&amp; candidates &gt; limit</text>
</g>
<!-- temporal -->
<g id="node13" class="node">
<title>temporal</title>
<path fill="none" stroke="black" d="M2167,-354.5C2167,-354.5 2036,-354.5 2036,-354.5 2030,-354.5 2024,-348.5 2024,-342.5 2024,-342.5 2024,-303.5 2024,-303.5 2024,-297.5 2030,-291.5 2036,-291.5 2036,-291.5 2167,-291.5 2167,-291.5 2173,-291.5 2179,-297.5 2179,-303.5 2179,-303.5 2179,-342.5 2179,-342.5 2179,-348.5 2173,-354.5 2167,-354.5"/>
<text text-anchor="middle" x="2101.5" y="-342.5" font-family="monospace" font-size="10.00">Temporal Expansion</text>
<text text-anchor="middle" x="2101.5" y="-331.5" font-family="monospace" font-size="10.00">temporal_edges</text>
<text text-anchor="middle" x="2101.5" y="-320.5" font-family="monospace" font-size="10.00">(NEXT, DURING_SESSION,</text>
<text text-anchor="middle" x="2101.5" y="-309.5" font-family="monospace" font-size="10.00">CAUSAL, REFERENCES)</text>
<text text-anchor="middle" x="2101.5" y="-298.5" font-family="monospace" font-size="10.00">decay: conf * 0.8 / hop</text>
</g>
<!-- final&#45;&gt;temporal -->
<g id="edge14" class="edge">
<title>final&#45;&gt;temporal</title>
<path fill="none" stroke="black" stroke-dasharray="5,2" d="M1587.19,-277.5C1765.31,-277.5 2101.84,-277.5 2101.84,-277.5 2101.84,-277.5 2101.84,-281.4 2101.84,-281.4"/>
<polygon fill="black" stroke="black" points="2098.34,-281.4 2101.84,-291.4 2105.34,-281.4 2098.34,-281.4"/>
<text text-anchor="middle" x="1886.5" y="-247.8" font-family="monospace" font-size="9.00">if temporalHops &gt; 0</text>
</g>
<!-- rerank&#45;&gt;temporal -->
<g id="edge15" class="edge">
<title>rerank&#45;&gt;temporal</title>
<path fill="none" stroke="black" stroke-dasharray="5,2" d="M1979.24,-323C1979.24,-323 2013.89,-323 2013.89,-323"/>
<polygon fill="black" stroke="black" points="2013.89,-326.5 2023.89,-323 2013.89,-319.5 2013.89,-326.5"/>
</g>
<!-- sort -->
<g id="node14" class="node">
<title>sort</title>
<path fill="none" stroke="black" d="M2337,-341C2337,-341 2236,-341 2236,-341 2230,-341 2224,-335 2224,-329 2224,-329 2224,-317 2224,-317 2224,-311 2230,-305 2236,-305 2236,-305 2337,-305 2337,-305 2343,-305 2349,-311 2349,-317 2349,-317 2349,-329 2349,-329 2349,-335 2343,-341 2337,-341"/>
<text text-anchor="middle" x="2286.5" y="-326" font-family="monospace" font-size="10.00">Sort by importance</text>
<text text-anchor="middle" x="2286.5" y="-315" font-family="monospace" font-size="10.00">Slice to limit</text>
</g>
<!-- temporal&#45;&gt;sort -->
<g id="edge16" class="edge">
<title>temporal&#45;&gt;sort</title>
<path fill="none" stroke="black" d="M2179.15,-323C2179.15,-323 2213.92,-323 2213.92,-323"/>
<polygon fill="black" stroke="black" points="2213.92,-326.5 2223.92,-323 2213.92,-319.5 2213.92,-326.5"/>
</g>
<!-- result -->
<g id="node15" class="node">
<title>result</title>
<ellipse fill="#c8e6c9" stroke="black" cx="2469.42" cy="-323" rx="71.34" ry="71.34"/>
<ellipse fill="none" stroke="black" cx="2469.42" cy="-323" rx="75.34" ry="75.34"/>
<text text-anchor="middle" x="2469.42" y="-326" font-family="monospace" font-size="10.00">MemoryNode[]</text>
<text text-anchor="middle" x="2469.42" y="-315" font-family="monospace" font-size="10.00">ranked results</text>
</g>
<!-- sort&#45;&gt;result -->
<g id="edge17" class="edge">
<title>sort&#45;&gt;result</title>
<path fill="none" stroke="black" d="M2349.19,-323C2349.19,-323 2383.85,-323 2383.85,-323"/>
<polygon fill="black" stroke="black" points="2383.85,-326.5 2393.85,-323 2383.85,-319.5 2383.85,-326.5"/>
</g>
<!-- config -->
<g id="node16" class="node">
<title>config</title>
<polygon fill="#f5f5f5" stroke="black" points="191,-74 0,-74 0,0 197,0 197,-68 191,-74"/>
<polyline fill="none" stroke="black" points="191,-74 191,-68 "/>
<polyline fill="none" stroke="black" points="197,-68 191,-68 "/>
<text text-anchor="middle" x="98.5" y="-62" font-family="monospace" font-size="10.00">Configurable via options:</text>
<text text-anchor="middle" x="98.5" y="-51" font-family="monospace" font-size="10.00">bm25Weight | minLevel/maxLevel</text>
<text text-anchor="middle" x="98.5" y="-40" font-family="monospace" font-size="10.00">levelWeights | rerank</text>
<text text-anchor="middle" x="98.5" y="-29" font-family="monospace" font-size="10.00">minUsefulness | temporalHops</text>
<text text-anchor="middle" x="98.5" y="-18" font-family="monospace" font-size="10.00">categoryFilter | typeFilter</text>
<text text-anchor="middle" x="98.5" y="-7" font-family="monospace" font-size="10.00">projectName</text>
</g>
<!-- config&#45;&gt;weight -->
<g id="edge18" class="edge">
<title>config&#45;&gt;weight</title>
<path fill="none" stroke="black" stroke-dasharray="1,5" d="M197.09,-37C461.57,-37 1166.84,-37 1166.84,-37 1166.84,-37 1166.84,-225.75 1166.84,-225.75"/>
<polygon fill="black" stroke="black" points="1163.34,-225.75 1166.84,-235.75 1170.34,-225.75 1163.34,-225.75"/>
</g>
<!-- limits -->
<g id="node17" class="node">
<title>limits</title>
<polygon fill="#ffebee" stroke="black" points="191,-191 0,-191 0,-117 197,-117 197,-185 191,-191"/>
<polyline fill="none" stroke="black" points="191,-191 191,-185 "/>
<polyline fill="none" stroke="black" points="197,-185 191,-185 "/>
<text text-anchor="middle" x="98.5" y="-179" font-family="monospace" font-size="10.00">Limitations:</text>
<text text-anchor="middle" x="98.5" y="-168" font-family="monospace" font-size="10.00">• BM25 only on HNSW candidates</text>
<text text-anchor="middle" x="98.5" y="-157" font-family="monospace" font-size="10.00">• No auto&#45;tuning bm25Weight</text>
<text text-anchor="middle" x="98.5" y="-146" font-family="monospace" font-size="10.00">• Recency bias vs old nodes</text>
<text text-anchor="middle" x="98.5" y="-135" font-family="monospace" font-size="10.00">• No query expansion</text>
<text text-anchor="middle" x="98.5" y="-124" font-family="monospace" font-size="10.00">• No cascading fallback</text>
</g>
<!-- limits&#45;&gt;sort -->
<g id="edge19" class="edge">
<title>limits&#45;&gt;sort</title>
<path fill="none" stroke="black" stroke-dasharray="1,5" d="M197.14,-154C623.52,-154 2286.84,-154 2286.84,-154 2286.84,-154 2286.84,-294.91 2286.84,-294.91"/>
<polygon fill="black" stroke="black" points="2283.34,-294.91 2286.84,-304.91 2290.34,-294.91 2283.34,-294.91"/>
</g>
</g>
</svg>
